<svg width="1720" height="664" viewBox="0 0 1720 664" fill="none" xmlns="http://www.w3.org/2000/svg">
<g clip-path="url(#clip0_5872_25259)">
<path d="M-22.0787 231.979C87.7723 231.979 261.321 430.9 261.321 430.9C261.321 430.9 247.973 444.379 227.391 464.962C171.028 521.325 58.3356 629.821 -22.1118 629.821C-131.93 629.821 -221 540.784 -221 430.9C-221 321.049 -131.93 231.979 -22.0787 231.979Z" fill="#E30613"/>
<path d="M393.207 297.116L260.428 429.895C260.99 430.556 261.32 430.919 261.32 430.919C261.32 430.919 247.973 444.399 227.39 464.981C171.027 521.344 58.335 629.84 -22.1124 629.84C-69.9182 629.84 -113.76 612.958 -148.086 584.876L114.301 847.197L114.499 847.197C189.396 921.995 310.745 921.962 385.576 847.098C388.119 844.554 390.564 841.944 392.943 839.301L528.465 703.779C534.048 698.196 541.184 691.027 549.543 682.635C605.905 626.272 718.598 517.776 799.045 517.776C879.492 517.776 943.751 562.179 976.558 626.933C967.274 606.251 954.191 586.891 937.21 569.91L664.416 297.116C589.519 222.219 468.104 222.219 393.24 297.116L393.207 297.116Z" fill="#13A538"/>
<path d="M799.552 914.842C689.701 914.842 516.152 715.921 516.152 715.921C516.152 715.921 529.5 702.441 550.082 681.858C606.445 625.496 719.137 516.999 799.585 516.999C909.436 516.999 998.506 606.069 998.506 715.92C998.506 825.772 909.403 914.842 799.552 914.842Z" fill="#005CA9"/>
</g>
<defs>
<clipPath id="clip0_5872_25259">
<rect width="664" height="1720" fill="white" transform="translate(0 664) rotate(-90)"/>
</clipPath>
</defs>
</svg>
