<?xml version="1.0" encoding="UTF-8"?>
<svg id="Layer_1" xmlns="http://www.w3.org/2000/svg" version="1.1" xmlns:xlink="http://www.w3.org/1999/xlink" viewBox="0 0 285 66">
  <!-- Generator: Adobe Illustrator 29.8.1, SVG Export Plug-In . SVG Version: 2.1.1 Build 2)  -->
  <defs>
    <style>
      .st0 {
        fill: none;
      }

      .st1 {
        fill: #e30613;
      }

      .st2 {
        clip-path: url(#clippath-1);
      }

      .st3 {
        fill: #13a538;
      }

      .st4 {
        fill: #1d1d1b;
      }

      .st5 {
        fill: #005ca9;
      }

      .st6 {
        clip-path: url(#clippath);
      }

      .st7 {
        fill: #f5f7f8;
      }
    </style>
    <clipPath id="clippath">
      <rect class="st0" x="-305" y="0" width="284.31" height="65.62"/>
    </clipPath>
    <clipPath id="clippath-1">
      <rect class="st0" x=".34" y=".19" width="284.31" height="65.62"/>
    </clipPath>
  </defs>
  <g class="st6">
    <g>
      <path class="st4" d="M-244.1,26.56c-1.45-1.15-2.75-1.67-4.24-1.67-1.56,0-2.75.93-2.75,2.16,0,.45.22.93.6,1.23.74.6.97.71,3.87,1.56,4.31,1.26,6.1,3.27,6.1,6.96,0,2.83-.86,4.98-2.53,6.43-1.79,1.53-4.31,2.34-7.18,2.34s-5.95-.97-8.59-2.79l2.75-5.21c1.97,1.71,3.79,2.53,5.69,2.53s3.13-.97,3.13-2.42c0-1.34-.86-1.97-3.87-2.86-2.75-.82-3.83-1.26-4.72-2.01-1.3-1.08-1.97-2.72-1.97-4.91,0-4.98,3.42-8.37,8.44-8.37,2.6,0,5.36.71,7.85,2.01l-2.57,5.02Z"/>
      <path class="st4" d="M-226.66,44.93h-6.43v-19.34h-5.24v-5.47h17.03v5.47h-5.36v19.34Z"/>
      <path class="st4" d="M-210.97,25.59v4.13h7.25v5.47h-7.25v4.28h7.66v5.47h-14.1v-24.81h14.1v5.47h-7.66Z"/>
      <path class="st4" d="M-191.89,44.93h-6.43v-24.81h6.43v24.81Z"/>
      <path class="st4" d="M-186.67,20.12h6.43l11.87,15.18v-15.18h6.43v24.81h-6.43l-11.87-15.18v15.18h-6.43v-24.81Z"/>
      <path class="st4" d="M-156.72,20.12h9.56c4.54,0,6.99,2.27,6.99,6.47,0,2.49-.78,3.98-2.72,5.13,1.82.33,2.64.74,3.46,1.53,1.01,1.04,1.6,2.75,1.6,4.65,0,4.35-3.27,7.03-8.56,7.03h-10.34v-24.81ZM-149.09,29.91c1.97,0,3.01-.86,3.01-2.42s-1.04-2.46-3.01-2.46h-1.19v4.87h1.19ZM-148.87,39.91c3.2,0,4.54-.78,4.54-2.6,0-.93-.48-1.79-1.23-2.16-.74-.37-1.3-.45-3.42-.45h-1.3v5.21h1.41Z"/>
      <path class="st4" d="M-128.61,40.62l-1.71,4.31h-6.81l9.52-24.81h7.03l9.34,24.81h-6.88l-1.6-4.31h-8.89ZM-124.11,27.79l-2.72,7.92h5.35l-2.64-7.92h0Z"/>
      <path class="st4" d="M-92.08,28.57c-1.53-1.82-3.35-2.72-5.58-2.72-3.87,0-6.66,2.86-6.66,6.84,0,2.12.71,3.79,2.2,5.02,1.26,1.04,2.83,1.64,4.46,1.64,2.12,0,3.9-.82,5.58-2.6v7.63c-3.01,1-4.02,1.23-5.77,1.23-3.65,0-7.4-1.64-9.93-4.31-2.12-2.27-3.27-5.24-3.27-8.56,0-7.33,5.8-13.13,13.13-13.13,1.94,0,3.5.33,5.84,1.26v7.7h0Z"/>
      <path class="st4" d="M-71.85,29.72v-9.6h6.43v24.81h-6.43v-10.19h-9.34v10.19h-6.43v-24.81h6.43v9.6h9.34Z"/>
      <path class="st4" d="M-53.94,25.59v4.13h7.25v5.47h-7.25v4.28h7.66v5.47h-14.1v-24.81h14.1v5.47h-7.66Z"/>
      <path class="st4" d="M-20.69,44.93h-8.04l-6.14-9.52v9.52h-6.43v-24.81h10.01c2.83,0,4.65.67,6.1,2.2,1.34,1.41,2.12,3.42,2.12,5.47,0,2.2-.86,4.28-2.27,5.5-.86.74-1.67,1.15-3.16,1.49l7.81,10.15h0ZM-33.67,31.25c1.23,0,2.2-.22,2.75-.67.71-.52,1.23-1.53,1.23-2.42s-.52-1.9-1.23-2.42c-.56-.45-1.53-.67-2.75-.67h-1.19v6.17h1.19Z"/>
      <path class="st4" d="M-189.66,54.85h2.12c1.67,0,2.8.36,3.79,1.19,1.15.96,1.78,2.37,1.78,3.96s-.63,3-1.81,3.98c-1.02.85-2.1,1.19-3.77,1.19h-2.1v-10.32h0ZM-187.49,64.1c1.27,0,2.18-.29,2.95-.94.9-.76,1.41-1.89,1.41-3.14s-.51-2.41-1.39-3.16c-.77-.65-1.7-.94-2.97-.94h-1.01v8.18h1.01,0Z"/>
      <path class="st4" d="M-174.08,58.75v6.42h-1.1v-.9c-.62.74-1.32,1.08-2.21,1.08-1.78,0-3.09-1.44-3.09-3.42s1.3-3.34,3.06-3.34c.93,0,1.61.32,2.24,1.07v-.91h1.1ZM-179.36,61.92c0,1.41.88,2.43,2.1,2.43s2.15-.99,2.15-2.4-.88-2.35-2.14-2.35-2.12,1-2.12,2.32h0ZM-177.61,56.51c0,.42-.36.77-.77.77s-.77-.36-.77-.79c0-.4.36-.76.77-.76s.77.34.77.77h0ZM-174.93,56.51c0,.42-.36.77-.77.77s-.77-.36-.77-.79c0-.4.36-.76.77-.76s.77.34.77.77h0Z"/>
      <path class="st4" d="M-170.8,58.75v.7c.45-.6.91-.85,1.59-.85.77,0,1.39.37,1.76,1.04.39-.68,1.04-1.04,1.87-1.04.74,0,1.39.32,1.73.87.25.4.36.87.36,1.64v4.07h-1.1v-3.9c0-1.18-.34-1.67-1.16-1.67-.93,0-1.38.66-1.38,2.01v3.56h-1.1v-3.81c0-1.18-.4-1.76-1.19-1.76-.48,0-.94.28-1.16.7-.15.31-.23.76-.23,1.38v3.5h-1.1v-6.42h1.1Z"/>
      <path class="st4" d="M-160.2,58.75v.7c.45-.6.91-.85,1.59-.85.77,0,1.39.37,1.76,1.04.39-.68,1.04-1.04,1.87-1.04.74,0,1.39.32,1.73.87.25.4.36.87.36,1.64v4.07h-1.1v-3.9c0-1.18-.34-1.67-1.16-1.67-.93,0-1.38.66-1.38,2.01v3.56h-1.1v-3.81c0-1.18-.4-1.76-1.19-1.76-.48,0-.94.28-1.16.7-.15.31-.23.76-.23,1.38v3.5h-1.1v-6.42h1.1Z"/>
      <path class="st4" d="M-149.61,65.17h-1.1v-5.4h-.66v-1.02h.66v-2.32h1.1v2.32h1.14v1.02h-1.14v5.4Z"/>
      <path class="st4" d="M-142.27,59.66c.63-.73,1.33-1.05,2.24-1.05,1.76,0,3.06,1.41,3.06,3.34s-1.31,3.4-3.09,3.4c-.9,0-1.61-.34-2.21-1.07v.88h-1.1v-11.28h1.1v5.77h0ZM-142.35,61.97c0,1.39.88,2.38,2.13,2.38s2.12-1.01,2.12-2.35-.88-2.38-2.1-2.38-2.15.96-2.15,2.35Z"/>
      <path class="st4" d="M-134.45,62.18c.06,1.31.88,2.17,2.04,2.17.85,0,1.36-.36,1.98-1.35l.93.53c-.71,1.25-1.65,1.82-2.96,1.82-1.86,0-3.15-1.38-3.15-3.36s1.27-3.39,3.11-3.39,3.06,1.35,3.06,3.39v.19h-5.01ZM-130.6,61.26c-.2-1-.94-1.65-1.89-1.65s-1.72.7-1.89,1.65h3.77Z"/>
      <path class="st4" d="M-125.04,60.25c-.23-.43-.51-.63-.9-.63-.42,0-.77.32-.77.71s.22.57,1.04.91c.73.31.93.4,1.22.62.46.34.71.82.71,1.41,0,1.18-.96,2.09-2.2,2.09-1.07,0-1.82-.56-2.24-1.64l.97-.4c.36.77.7,1.04,1.29,1.04s1.05-.43,1.05-1.02c0-.48-.23-.71-1.04-1.05-1.49-.63-1.86-1.02-1.86-1.87,0-1.02.8-1.79,1.87-1.79.79,0,1.36.37,1.76,1.16l-.91.48h0Z"/>
      <path class="st4" d="M-119.55,60.25c-.23-.43-.51-.63-.9-.63-.42,0-.77.32-.77.71s.22.57,1.04.91c.73.31.93.4,1.22.62.46.34.71.82.71,1.41,0,1.18-.96,2.09-2.2,2.09-1.07,0-1.82-.56-2.24-1.64l.97-.4c.36.77.7,1.04,1.28,1.04s1.05-.43,1.05-1.02c0-.48-.23-.71-1.04-1.05-1.49-.63-1.86-1.02-1.86-1.87,0-1.02.8-1.79,1.87-1.79.79,0,1.36.37,1.76,1.16l-.91.48h0Z"/>
      <path class="st4" d="M-115.95,62.18c.06,1.31.88,2.17,2.04,2.17.85,0,1.36-.36,1.98-1.35l.93.53c-.71,1.25-1.65,1.82-2.96,1.82-1.86,0-3.15-1.38-3.15-3.36s1.27-3.39,3.11-3.39,3.06,1.35,3.06,3.39v.19h-5.01ZM-112.09,61.26c-.2-1-.95-1.65-1.89-1.65s-1.72.7-1.89,1.65h3.77Z"/>
      <path class="st4" d="M-108.07,58.75v.7c.57-.68.85-.85,1.45-.85.36,0,.59.06.97.28l-.51.99c-.28-.17-.42-.22-.65-.22-.42,0-.83.23-1.02.59-.17.31-.25.77-.25,1.55v3.39h-1.1v-6.42h1.1Z"/>
      <path class="st4" d="M-103.63,64.55c0,.43-.34.77-.76.77s-.77-.34-.77-.77.36-.76.76-.76c.43,0,.77.34.77.76Z"/>
      <path class="st4" d="M-97.27,54.85h2.12c1.67,0,2.8.36,3.79,1.19,1.14.96,1.78,2.37,1.78,3.96s-.63,3-1.81,3.98c-1.02.85-2.1,1.19-3.77,1.19h-2.1v-10.32h0ZM-95.11,64.1c1.27,0,2.18-.29,2.95-.94.9-.76,1.41-1.89,1.41-3.14s-.51-2.41-1.39-3.16c-.77-.65-1.7-.94-2.97-.94h-1.01v8.18h1.01,0Z"/>
      <path class="st4" d="M-86.96,62.18c.06,1.31.88,2.17,2.04,2.17.85,0,1.36-.36,1.98-1.35l.93.53c-.71,1.25-1.65,1.82-2.96,1.82-1.86,0-3.15-1.38-3.15-3.36s1.27-3.39,3.11-3.39,3.06,1.35,3.06,3.39v.19h-5.01ZM-83.11,61.26c-.2-1-.94-1.65-1.89-1.65s-1.72.7-1.89,1.65h3.77Z"/>
      <path class="st4" d="M-79.08,58.75v.77c.56-.68,1.05-.93,1.86-.93s1.49.34,1.84.88c.25.4.36.88.36,1.72v3.98h-1.1v-3.79c0-.68-.05-.99-.22-1.25-.2-.32-.62-.53-1.15-.53-1.11,0-1.59.71-1.59,2.37v3.2h-1.1v-6.42h1.1,0Z"/>
      <path class="st4" d="M-71.75,61.12l2.32-2.37h1.47l-2.74,2.74,3.26,3.68h-1.46l-2.58-2.92-.28.28v2.65h-1.1v-11.28h1.1v7.22h0Z"/>
      <path class="st4" d="M-65.16,65.17h-1.1v-5.4h-.66v-1.02h.66v-2.32h1.1v2.32h1.14v1.02h-1.14v5.4Z"/>
      <path class="st4" d="M-56.71,63.1l2.01-4.84,1.99,4.84,1.92-4.35h1.24l-3.19,6.87-1.98-4.78-1.98,4.78-3.15-6.87h1.24l1.9,4.35Z"/>
      <path class="st4" d="M-47.79,62.18c.06,1.31.88,2.17,2.04,2.17.85,0,1.36-.36,1.98-1.35l.93.53c-.71,1.25-1.65,1.82-2.95,1.82-1.86,0-3.16-1.38-3.16-3.36s1.27-3.39,3.11-3.39,3.06,1.35,3.06,3.39v.19h-5.01ZM-43.94,61.26c-.2-1-.94-1.65-1.89-1.65s-1.72.7-1.89,1.65h3.77Z"/>
      <path class="st4" d="M-39.67,56.32c0,.43-.36.79-.79.79s-.79-.36-.79-.8c0-.42.36-.77.79-.77s.79.36.79.79h0ZM-39.92,65.17h-1.1v-6.42h1.1v6.42Z"/>
      <path class="st4" d="M-36.62,65.17h-1.1v-5.4h-.67v-1.02h.67v-2.32h1.1v2.32h1.14v1.02h-1.14v5.4Z"/>
      <path class="st4" d="M-33.54,62.18c.06,1.31.88,2.17,2.04,2.17.85,0,1.36-.36,1.98-1.35l.93.53c-.71,1.25-1.65,1.82-2.96,1.82-1.86,0-3.16-1.38-3.16-3.36s1.27-3.39,3.11-3.39,3.06,1.35,3.06,3.39v.19h-5.01ZM-29.69,61.26c-.2-1-.95-1.65-1.89-1.65s-1.72.7-1.89,1.65h3.77Z"/>
      <path class="st4" d="M-25.67,58.75v.7c.57-.68.85-.85,1.45-.85.36,0,.59.06.97.28l-.51.99c-.28-.17-.42-.22-.65-.22-.42,0-.84.23-1.02.59-.17.31-.25.77-.25,1.55v3.39h-1.1v-6.42h1.1Z"/>
      <path class="st4" d="M-21.23,64.55c0,.43-.34.77-.76.77s-.77-.34-.77-.77.36-.76.76-.76c.43,0,.77.34.77.76Z"/>
      <path class="st1" d="M-268.34,10.67c0,5.89-10.67,15.2-10.67,15.2,0,0-.72-.72-1.83-1.82-3.02-3.02-8.84-9.07-8.84-13.38C-289.67,4.78-284.9,0-279.01,0s10.67,4.78,10.67,10.67Z"/>
      <path class="st3" d="M-271.83,32.94l-7.12-7.12s-.05.05-.05.05c0,0-.72-.72-1.83-1.82-3.02-3.02-8.84-9.07-8.84-13.38,0-2.56.91-4.91,2.41-6.76l-14.07,14.07h0c-4.01,4.03-4.01,10.53,0,14.55.14.14.28.27.42.4l7.27,7.27c.3.3.68.68,1.13,1.13,3.02,3.02,8.84,9.07,8.84,13.38s-2.38,7.76-5.85,9.52c1.11-.5,2.15-1.2,3.06-2.11l14.63-14.63c4.02-4.02,4.02-10.53,0-14.54h0Z"/>
      <path class="st5" d="M-305,54.7c0-5.89,10.67-15.2,10.67-15.2,0,0,.72.72,1.83,1.82,3.02,3.02,8.84,9.07,8.84,13.38,0,5.89-4.78,10.67-10.67,10.67s-10.67-4.78-10.67-10.67Z"/>
    </g>
  </g>
  <g class="st2">
    <g>
      <path class="st7" d="M61.25,26.75c-1.45-1.15-2.75-1.67-4.24-1.67-1.56,0-2.75.93-2.75,2.16,0,.45.22.93.6,1.23.74.6.97.71,3.87,1.56,4.31,1.26,6.1,3.27,6.1,6.96,0,2.83-.86,4.98-2.53,6.43-1.79,1.53-4.31,2.34-7.18,2.34s-5.95-.97-8.59-2.79l2.75-5.21c1.97,1.71,3.79,2.53,5.69,2.53s3.13-.97,3.13-2.42c0-1.34-.86-1.97-3.87-2.86-2.75-.82-3.83-1.26-4.72-2.01-1.3-1.08-1.97-2.72-1.97-4.91,0-4.98,3.42-8.37,8.44-8.37,2.6,0,5.36.71,7.85,2.01l-2.57,5.02Z"/>
      <path class="st7" d="M78.68,45.12h-6.43v-19.34h-5.24v-5.47h17.03v5.47h-5.36v19.34Z"/>
      <path class="st7" d="M94.37,25.78v4.13h7.25v5.47h-7.25v4.28h7.66v5.47h-14.1v-24.81h14.1v5.47h-7.66Z"/>
      <path class="st7" d="M113.46,45.12h-6.43v-24.81h6.43v24.81Z"/>
      <path class="st7" d="M118.67,20.31h6.43l11.87,15.18v-15.18h6.43v24.81h-6.43l-11.87-15.18v15.18h-6.43v-24.81Z"/>
      <path class="st7" d="M148.62,20.31h9.56c4.54,0,6.99,2.27,6.99,6.47,0,2.49-.78,3.98-2.72,5.13,1.82.33,2.64.74,3.46,1.53,1.01,1.04,1.6,2.75,1.6,4.65,0,4.35-3.27,7.03-8.56,7.03h-10.34v-24.81ZM156.25,30.1c1.97,0,3.01-.86,3.01-2.42s-1.04-2.46-3.01-2.46h-1.19v4.87h1.19ZM156.47,40.1c3.2,0,4.54-.78,4.54-2.6,0-.93-.48-1.79-1.23-2.16-.74-.37-1.3-.45-3.42-.45h-1.3v5.21h1.41Z"/>
      <path class="st7" d="M176.73,40.81l-1.71,4.31h-6.81l9.52-24.81h7.03l9.34,24.81h-6.88l-1.6-4.31h-8.89ZM181.23,27.98l-2.72,7.92h5.35l-2.64-7.92h0Z"/>
      <path class="st7" d="M213.27,28.76c-1.53-1.82-3.35-2.72-5.58-2.72-3.87,0-6.66,2.86-6.66,6.84,0,2.12.71,3.79,2.2,5.02,1.26,1.04,2.83,1.64,4.46,1.64,2.12,0,3.9-.82,5.58-2.6v7.63c-3.01,1-4.02,1.23-5.77,1.23-3.65,0-7.4-1.64-9.93-4.31-2.12-2.27-3.27-5.24-3.27-8.56,0-7.33,5.8-13.13,13.13-13.13,1.94,0,3.5.33,5.84,1.26v7.7h0Z"/>
      <path class="st7" d="M233.49,29.91v-9.6h6.43v24.81h-6.43v-10.19h-9.34v10.19h-6.43v-24.81h6.43v9.6h9.34Z"/>
      <path class="st7" d="M251.4,25.78v4.13h7.25v5.47h-7.25v4.28h7.66v5.47h-14.1v-24.81h14.1v5.47h-7.66Z"/>
      <path class="st7" d="M284.66,45.12h-8.04l-6.14-9.52v9.52h-6.43v-24.81h10.01c2.83,0,4.65.67,6.1,2.2,1.34,1.41,2.12,3.42,2.12,5.47,0,2.2-.86,4.28-2.27,5.5-.86.74-1.67,1.15-3.16,1.49l7.81,10.15h0ZM271.67,31.44c1.23,0,2.2-.22,2.75-.67.71-.52,1.23-1.53,1.23-2.42s-.52-1.9-1.23-2.42c-.56-.45-1.53-.67-2.75-.67h-1.19v6.17h1.19Z"/>
      <path class="st7" d="M115.69,55.04h2.12c1.67,0,2.8.36,3.79,1.19,1.15.96,1.78,2.37,1.78,3.96s-.63,3-1.81,3.98c-1.02.85-2.1,1.19-3.77,1.19h-2.1v-10.32h0ZM117.85,64.29c1.27,0,2.18-.29,2.95-.94.9-.76,1.41-1.89,1.41-3.14s-.51-2.41-1.39-3.16c-.77-.65-1.7-.94-2.97-.94h-1.01v8.18h1.01,0Z"/>
      <path class="st7" d="M131.26,58.94v6.42h-1.1v-.9c-.62.74-1.32,1.08-2.21,1.08-1.78,0-3.09-1.44-3.09-3.42s1.3-3.34,3.06-3.34c.93,0,1.61.32,2.24,1.07v-.91h1.1ZM125.99,62.11c0,1.41.88,2.43,2.1,2.43s2.15-.99,2.15-2.4-.88-2.35-2.14-2.35-2.12,1-2.12,2.32h0ZM127.74,56.7c0,.42-.36.77-.77.77s-.77-.36-.77-.79c0-.4.36-.76.77-.76s.77.34.77.77h0ZM130.41,56.7c0,.42-.36.77-.77.77s-.77-.36-.77-.79c0-.4.36-.76.77-.76s.77.34.77.77h0Z"/>
      <path class="st7" d="M134.54,58.94v.7c.45-.6.91-.85,1.59-.85.77,0,1.39.37,1.76,1.04.39-.68,1.04-1.04,1.87-1.04.74,0,1.39.32,1.73.87.25.4.36.87.36,1.64v4.07h-1.1v-3.9c0-1.18-.34-1.67-1.16-1.67-.93,0-1.38.66-1.38,2.01v3.56h-1.1v-3.81c0-1.18-.4-1.76-1.19-1.76-.48,0-.94.28-1.16.7-.15.31-.23.76-.23,1.38v3.5h-1.1v-6.42h1.1Z"/>
      <path class="st7" d="M145.14,58.94v.7c.45-.6.91-.85,1.59-.85.77,0,1.39.37,1.76,1.04.39-.68,1.04-1.04,1.87-1.04.74,0,1.39.32,1.73.87.25.4.36.87.36,1.64v4.07h-1.1v-3.9c0-1.18-.34-1.67-1.16-1.67-.93,0-1.38.66-1.38,2.01v3.56h-1.1v-3.81c0-1.18-.4-1.76-1.19-1.76-.48,0-.94.28-1.16.7-.15.31-.23.76-.23,1.38v3.5h-1.1v-6.42h1.1Z"/>
      <path class="st7" d="M155.74,65.36h-1.1v-5.4h-.66v-1.02h.66v-2.32h1.1v2.32h1.14v1.02h-1.14v5.4Z"/>
      <path class="st7" d="M163.07,59.85c.63-.73,1.33-1.05,2.24-1.05,1.76,0,3.06,1.41,3.06,3.34s-1.31,3.4-3.09,3.4c-.9,0-1.61-.34-2.21-1.07v.88h-1.1v-11.28h1.1v5.77h0ZM162.99,62.16c0,1.39.88,2.38,2.13,2.38s2.12-1.01,2.12-2.35-.88-2.38-2.1-2.38-2.15.96-2.15,2.35Z"/>
      <path class="st7" d="M170.9,62.37c.06,1.31.88,2.17,2.04,2.17.85,0,1.36-.36,1.98-1.35l.93.53c-.71,1.25-1.65,1.82-2.96,1.82-1.86,0-3.15-1.38-3.15-3.36s1.27-3.39,3.11-3.39,3.06,1.35,3.06,3.39v.19h-5.01ZM174.75,61.45c-.2-1-.94-1.65-1.89-1.65s-1.72.7-1.89,1.65h3.77Z"/>
      <path class="st7" d="M180.3,60.44c-.23-.43-.51-.63-.9-.63-.42,0-.77.32-.77.71s.22.57,1.04.91c.73.31.93.4,1.22.62.46.34.71.82.71,1.41,0,1.18-.96,2.09-2.2,2.09-1.07,0-1.82-.56-2.24-1.64l.97-.4c.36.77.7,1.04,1.29,1.04s1.05-.43,1.05-1.02c0-.48-.23-.71-1.04-1.05-1.49-.63-1.86-1.02-1.86-1.87,0-1.02.8-1.79,1.87-1.79.79,0,1.36.37,1.76,1.16l-.91.48h0Z"/>
      <path class="st7" d="M185.79,60.44c-.23-.43-.51-.63-.9-.63-.42,0-.77.32-.77.71s.22.57,1.04.91c.73.31.93.4,1.22.62.46.34.71.82.71,1.41,0,1.18-.96,2.09-2.2,2.09-1.07,0-1.82-.56-2.24-1.64l.97-.4c.36.77.7,1.04,1.28,1.04s1.05-.43,1.05-1.02c0-.48-.23-.71-1.04-1.05-1.49-.63-1.86-1.02-1.86-1.87,0-1.02.8-1.79,1.87-1.79.79,0,1.36.37,1.76,1.16l-.91.48h0Z"/>
      <path class="st7" d="M189.4,62.37c.06,1.31.88,2.17,2.04,2.17.85,0,1.36-.36,1.98-1.35l.93.53c-.71,1.25-1.65,1.82-2.96,1.82-1.86,0-3.15-1.38-3.15-3.36s1.27-3.39,3.11-3.39,3.06,1.35,3.06,3.39v.19h-5.01ZM193.25,61.45c-.2-1-.95-1.65-1.89-1.65s-1.72.7-1.89,1.65h3.77Z"/>
      <path class="st7" d="M197.27,58.94v.7c.57-.68.85-.85,1.45-.85.36,0,.59.06.97.28l-.51.99c-.28-.17-.42-.22-.65-.22-.42,0-.83.23-1.02.59-.17.31-.25.77-.25,1.55v3.39h-1.1v-6.42h1.1Z"/>
      <path class="st7" d="M201.71,64.74c0,.43-.34.77-.76.77s-.77-.34-.77-.77.36-.76.76-.76c.43,0,.77.34.77.76Z"/>
      <path class="st7" d="M208.07,55.04h2.12c1.67,0,2.8.36,3.79,1.19,1.14.96,1.78,2.37,1.78,3.96s-.63,3-1.81,3.98c-1.02.85-2.1,1.19-3.77,1.19h-2.1v-10.32h0ZM210.24,64.29c1.27,0,2.18-.29,2.95-.94.9-.76,1.41-1.89,1.41-3.14s-.51-2.41-1.39-3.16c-.77-.65-1.7-.94-2.97-.94h-1.01v8.18h1.01,0Z"/>
      <path class="st7" d="M218.39,62.37c.06,1.31.88,2.17,2.04,2.17.85,0,1.36-.36,1.98-1.35l.93.53c-.71,1.25-1.65,1.82-2.96,1.82-1.86,0-3.15-1.38-3.15-3.36s1.27-3.39,3.11-3.39,3.06,1.35,3.06,3.39v.19h-5.01ZM222.24,61.45c-.2-1-.94-1.65-1.89-1.65s-1.72.7-1.89,1.65h3.77Z"/>
      <path class="st7" d="M226.26,58.94v.77c.56-.68,1.05-.93,1.86-.93s1.49.34,1.84.88c.25.4.36.88.36,1.72v3.98h-1.1v-3.79c0-.68-.05-.99-.22-1.25-.2-.32-.62-.53-1.15-.53-1.11,0-1.59.71-1.59,2.37v3.2h-1.1v-6.42h1.1,0Z"/>
      <path class="st7" d="M233.59,61.31l2.32-2.37h1.47l-2.74,2.74,3.26,3.68h-1.46l-2.58-2.92-.28.28v2.65h-1.1v-11.28h1.1v7.22h0Z"/>
      <path class="st7" d="M240.18,65.36h-1.1v-5.4h-.66v-1.02h.66v-2.32h1.1v2.32h1.14v1.02h-1.14v5.4Z"/>
      <path class="st7" d="M248.63,63.29l2.01-4.84,1.99,4.84,1.92-4.35h1.24l-3.19,6.87-1.98-4.78-1.98,4.78-3.15-6.87h1.24l1.9,4.35Z"/>
      <path class="st7" d="M257.56,62.37c.06,1.31.88,2.17,2.04,2.17.85,0,1.36-.36,1.98-1.35l.93.53c-.71,1.25-1.65,1.82-2.95,1.82-1.86,0-3.16-1.38-3.16-3.36s1.27-3.39,3.11-3.39,3.06,1.35,3.06,3.39v.19h-5.01ZM261.41,61.45c-.2-1-.94-1.65-1.89-1.65s-1.72.7-1.89,1.65h3.77Z"/>
      <path class="st7" d="M265.68,56.51c0,.43-.36.79-.79.79s-.79-.36-.79-.8c0-.42.36-.77.79-.77s.79.36.79.79h0ZM265.43,65.36h-1.1v-6.42h1.1v6.42Z"/>
      <path class="st7" d="M268.72,65.36h-1.1v-5.4h-.67v-1.02h.67v-2.32h1.1v2.32h1.14v1.02h-1.14v5.4Z"/>
      <path class="st7" d="M271.8,62.37c.06,1.31.88,2.17,2.04,2.17.85,0,1.36-.36,1.98-1.35l.93.53c-.71,1.25-1.65,1.82-2.96,1.82-1.86,0-3.16-1.38-3.16-3.36s1.27-3.39,3.11-3.39,3.06,1.35,3.06,3.39v.19h-5.01ZM275.66,61.45c-.2-1-.95-1.65-1.89-1.65s-1.72.7-1.89,1.65h3.77Z"/>
      <path class="st7" d="M279.68,58.94v.7c.57-.68.85-.85,1.45-.85.36,0,.59.06.97.28l-.51.99c-.28-.17-.42-.22-.65-.22-.42,0-.84.23-1.02.59-.17.31-.25.77-.25,1.55v3.39h-1.1v-6.42h1.1Z"/>
      <path class="st7" d="M284.12,64.74c0,.43-.34.77-.76.77s-.77-.34-.77-.77.36-.76.76-.76c.43,0,.77.34.77.76Z"/>
      <path class="st1" d="M37.01,10.86c0,5.89-10.67,15.2-10.67,15.2,0,0-.72-.72-1.83-1.82-3.02-3.02-8.84-9.07-8.84-13.38C15.67,4.97,20.45.19,26.34.19s10.67,4.78,10.67,10.67Z"/>
      <path class="st3" d="M33.51,33.13l-7.12-7.12s-.05.05-.05.05c0,0-.72-.72-1.83-1.82-3.02-3.02-8.84-9.07-8.84-13.38,0-2.56.91-4.91,2.41-6.76l-14.07,14.07h0C0,22.2,0,28.71,4.02,32.72c.14.14.28.27.42.4l7.27,7.27c.3.3.68.68,1.13,1.13,3.02,3.02,8.84,9.07,8.84,13.38s-2.38,7.76-5.85,9.52c1.11-.5,2.15-1.2,3.06-2.11l14.63-14.63c4.02-4.02,4.02-10.53,0-14.54h0Z"/>
      <path class="st5" d="M.34,54.89c0-5.89,10.67-15.2,10.67-15.2,0,0,.72.72,1.83,1.82,3.02,3.02,8.84,9.07,8.84,13.38,0,5.89-4.78,10.67-10.67,10.67S.34,60.78.34,54.89Z"/>
    </g>
  </g>
</svg>