<?xml version="1.0" encoding="UTF-8"?>
<svg id="Layer_1" data-name="Layer 1" xmlns="http://www.w3.org/2000/svg" viewBox="0 0 200 222.93">
  <defs>
    <style>
      .cls-1 {
        fill: #7c7878;
      }

      .cls-2 {
        fill: #1a1719;
      }

      .cls-3 {
        fill: #b2aead;
      }

      .cls-4 {
        fill: #4d4647;
      }

      .cls-5 {
        fill: #bb4644;
      }

      .cls-6 {
        fill: #010101;
      }

      .cls-7 {
        fill: #dce0e1;
      }

      .cls-8 {
        fill: #121111;
      }
    </style>
  </defs>
  <path class="cls-7" d="M200,122.93c0,18.82-5.2,36.42-14.24,51.46-2.43,4.04-5.14,7.9-8.09,11.54-16.26,20.02-40.11,33.63-67.16,36.46-.55.06-1.1.11-1.66.16-2.91.26-5.87.39-8.85.39s-5.93-.13-8.85-.39c-.55-.05-1.11-.1-1.66-.16-27.05-2.82-50.9-16.43-67.16-36.46-2.96-3.64-5.67-7.5-8.09-11.54C5.2,159.36,0,141.75,0,122.93,0,84.72,21.43,51.52,52.93,34.68c14.03-7.5,30.05-11.75,47.07-11.75s33.04,4.25,47.07,11.75c31.5,16.84,52.93,50.04,52.93,88.25Z"/>
  <path class="cls-3" d="M135.39,156.31s-.18.21-.32.37h0c-.13.14-.27.28-.31.31-.57.51-1.9,1.67-3.83,3.1-.09.06-.18.13-.27.2-5.79,4.23-16.67,10.67-29.17,10.38-.42,0-.83.01-1.25,0-.42,0-.83,0-1.25,0-12.49.29-23.38-6.15-29.17-10.38-.09-.07-.18-.13-.27-.2-1.94-1.43-3.26-2.58-3.83-3.1-.09-.07-.57-.59-.64-.69.19-.13,1.37-2.12,1.46-2.33,2.05-4.33,1.64-10.2,1.88-14.93.21-4.08.35-8.16.45-12.24,0-.01,0-.03,0-.04.07-2.89.22-11.67.24-12.77,0,1.41,5.2,5.84,6.45,6.71,7.9,5.5,15.63,11.19,24.67,11.34,9.05-.14,16.78-5.84,24.67-11.34,1.25-.87,6.45-5.3,6.45-6.71.02,1.1.04,2.56.07,4.28.11,6.93.27,13.86.62,20.78.24,4.72-.17,10.59,1.88,14.93.1.21,1.28,2.2,1.46,2.33Z"/>
  <path class="cls-6" d="M136.71,155.28s0,0,0,0c-.02,0-.02,0,0,0Z"/>
  <path class="cls-5" d="M86.9,108.58s0,0,0,0c0-.01-.01-.01,0,0Z"/>
  <path class="cls-6" d="M133.09,158.53s0,0,0,0c-.02,0-.02,0,0,0Z"/>
  <path class="cls-6" d="M135.4,156.75s0,0,0,0c-.02,0-.02,0,0,0Z"/>
  <path class="cls-6" d="M138.32,162.63s0,0,0,0c-.02,0-.02,0,0,0Z"/>
  <path class="cls-1" d="M135.39,156.31s-.18.21-.32.37h0c-32.67,1.04-45.49-9.05-61.17-25.81-1.46-1.56-3.16-2.89-5.02-4.06,0-.01,0-.03,0-.04.07-2.89.22-11.67.24-12.77,0,1.41,5.2,5.84,6.45,6.71,7.9,5.5,15.63,11.19,24.67,11.34,9.05-.14,16.78-5.84,24.67-11.34,1.25-.87,6.45-5.3,6.45-6.71.02,1.1.04,2.56.07,4.28.11,6.93.27,13.86.62,20.78.24,4.72-.17,10.59,1.88,14.93.1.21,1.28,2.2,1.46,2.33Z"/>
  <path class="cls-3" d="M150.57,61.54c-.19-.72-.66-1.05-1.23-1.15-.71-.13-1.58.1-2.24.37-2.11.85-3.01,4.76-3.32,6.65,0-.15-.08-.27-.1-.42-1.91-17.44-.46-35.99-27.84-42.21-5.01-1.14-10.51,1.9-15.84,2.37-5.32-.47-10.83-3.51-15.84-2.37-27.38,6.22-25.93,24.76-27.84,42.21-.02.15-.1.27-.1.42-.31-1.88-1.2-5.8-3.32-6.65-.66-.27-1.53-.5-2.24-.37-.57.1-1.05.43-1.23,1.15-.26,1-.05,2.29,0,3.32.16,3.23.67,6.43,1.24,9.61.68,3.85.38,6.71,1.64,10.41.71,2.08,2.76,5.14,3.91,7.02.57.93,1.53,2.43,2.81,2.38.1,0,1.29-.1,1.44-.67,0,0,0,0,0,0,.12.09.24.22.36.41,1.49,2.2,3.18,11,7.92,20.58.02.03.03.07.05.1.08.15.15.31.23.46.24.48.49.95.74,1.43.85,1.59,3.93,5.23,7.67,9.07,4.21,4.32,9.1,9.75,14.88,11.91,2.29.85,4.96,1.3,7.66,1.3,2.7,0,5.37-.45,7.66-1.3,5.79-2.16,10.67-7.58,14.88-11.91,3.74-3.84,6.82-7.48,7.67-9.07.26-.48.5-.95.74-1.43.08-.15.15-.3.23-.46.02-.03.03-.06.05-.1,4.74-9.58,6.43-18.39,7.92-20.58.12-.18.24-.32.36-.41,0,0,0,0,0,0,.15.57,1.34.67,1.44.67,1.29.06,2.24-1.45,2.81-2.38,1.16-1.89,3.21-4.94,3.91-7.02,1.26-3.71.95-6.56,1.64-10.41.57-3.18,1.08-6.38,1.24-9.61.05-1.03.26-2.32,0-3.32Z"/>
  <path class="cls-8" d="M137.85,13.47C129.4,4.46,114.59,0,100,0c-14.59,0-29.4,4.46-37.85,13.47-12.77,13.62-10.54,36.45-7.16,53.21.87,3.94,0,10.13,3.07,16.15,0-.65,1.39-11.17,2.45-14.67,3.42-11.35-7.72-29.81,18.5-36.75,4.97-1.32,14.68.94,19.95,1.25.04,0,.07,0,.11,0,.04,0,.07,0,.11,0,.27-.02.55-.04.84-.06.29.03.57.05.84.06.04,0,.07,0,.11,0,.04,0,.07,0,.11,0,5.27-.31,14.97-2.57,19.95-1.25,26.21,6.95,15.08,25.4,18.5,36.75,1.05,3.5,2.45,14.02,2.45,14.67,3.07-6.02,2.2-12.21,3.07-16.15,3.38-16.76,5.61-39.59-7.16-53.21Z"/>
  <path class="cls-4" d="M185.76,174.39c-2.43,4.04-5.14,7.9-8.09,11.54-16.26,20.02-40.11,33.63-67.16,36.46-.55.06-1.1.11-1.66.16-2.91.26-5.87.39-8.85.39s-5.93-.13-8.85-.39c-.55-.05-1.11-.1-1.66-.16-27.05-2.82-50.9-16.43-67.16-36.46-2.96-3.64-5.67-7.5-8.09-11.54,8.02-4.32,21.47-11.19,25.56-13.12,5.17-2.43,10.19-5.27,14.87-8.56,2.33-1.64,4.22-3.56,5.82-5.91.05-.07.09-.14.14-.2h0s0,0,0,0c1.68-2.47,3.27-5,4.89-7.5.81-1.24,2.24-2.76,3.05-4,0,.04.01.09.03.15h0c.03.09.07.2.12.32,0,0,0,0,0,.01,0,0,0,0,0,0,0,.02,0,.03.01.05,0,.01,0,.03.01.04.01.05.03.11.05.16,0,.01,0,.03.01.04.01.04.03.09.04.13,0,0,0,.02,0,.03,0,.02.01.04.02.06.01.04.02.08.04.12,0,.02.01.04.02.06.05.16.1.33.16.52.02.05.03.11.05.16.04.11.07.23.11.35.02.06.04.11.06.17.01.04.03.09.04.13.11.33.23.69.36,1.07.02.06.05.13.07.19.1.28.21.57.32.88.05.12.09.24.14.36.07.19.15.38.23.57.08.19.16.39.24.59.03.07.06.13.08.2.04.1.08.19.12.29.21.49.44,1,.69,1.53.05.11.11.23.16.35.05.1.1.21.15.31.01.03.02.05.04.08.04.09.09.18.13.26.04.08.08.17.12.25.28.57.58,1.15.91,1.74.08.15.16.3.24.45.23.41.47.83.72,1.26.06.1.12.2.18.31.11.19.23.38.34.57.14.23.28.45.43.68.12.2.25.39.38.59.01.02.03.04.04.06.09.14.18.27.27.41.1.14.19.29.29.43.3.44.62.89.95,1.35.08.11.17.23.25.34.07.09.14.19.21.28.58.78,1.2,1.56,1.87,2.35.12.14.23.28.35.41.08.09.16.19.24.28.04.04.08.09.11.13.08.09.16.19.25.28.12.13.24.27.36.41.11.12.21.23.32.35.12.13.23.25.35.38s.24.25.36.38c.45.47.92.95,1.41,1.42.04.03.07.07.11.1,0,0,.01.02.02.02.04.04.08.08.12.12.12.11.23.22.35.33.68.64,1.38,1.27,2.12,1.89.12.1.24.2.36.31.14.12.28.23.42.35.3.25.61.49.92.73.09.07.19.15.29.23h0c1.55,2.28,3.07,4.56,4.45,6.68,0,0,0,0,0,0,.02.03.04.06.05.08.24.38.48.75.72,1.11h0c.13.2.25.39.37.58.85,1.35,2.17,2.27,3.67,2.77.94.31,1.95.46,2.97.44,1.08.02,2.15-.15,3.14-.5,1.43-.51,2.68-1.41,3.5-2.71.07-.11.14-.21.2-.32h0c.05-.09.11-.17.17-.26.23-.37.47-.74.72-1.12.02-.03.04-.05.05-.08,0,0,0,0,0,0,22-16.61,23.86-34.79,23.97-34.63,0,0,0,0,0,0,.05.06.09.12.14.19,0,0,0,0,0,0,.82,1.1,1.92,2.32,2.59,3.35.81,1.25,1.61,2.51,2.42,3.77.81,1.25,1.63,2.5,2.46,3.74.05.07.09.13.14.2.08.11.15.22.23.33h0c1.56,2.2,3.37,4.02,5.59,5.58,4.68,3.28,9.7,6.13,14.87,8.56,4.08,1.92,17.54,8.8,25.56,13.12Z"/>
  <path class="cls-2" d="M110.5,222.38c-.55.06-1.1.11-1.66.16-2.91.26-5.87.39-8.85.39s-5.93-.13-8.85-.39c-.55-.05-1.11-.1-1.66-.16.47-3.49.94-6.98,1.41-10.47,1.08-8.14,2.15-16.28,3.16-24.44.04-.37.09-.73.13-1.1,0-.02-.02-.04-.02-.06-.04-.12-.09-.24-.13-.36-.12-.32.1-.74.44-.76,1.78-.11,3.56-.23,5.35-.24,1.86-.02,3.72.06,5.57.17.48.03.58.59.36.91.06.48.12.96.18,1.44,1,8.16,2.08,16.3,3.16,24.44.46,3.49.93,6.98,1.4,10.47Z"/>
  <path class="cls-2" d="M97.2,174.55c-8.88,9.79-21.58,22.5-23.4,23.64-.27.17-.66.03-.73-.28-1.4-6.15-10.38-37.88-10.39-43.97,0-.36,18.8,22.43,19.23,22.3.43-.13,12.11-7.4,12.55-6.83.82,1.07,1.52,2.21,2.07,3.42.25.56.48,1.13.67,1.71Z"/>
  <path class="cls-2" d="M103.02,174.55c8.88,9.79,21.58,22.5,23.4,23.64.27.17.66.03.73-.28,1.4-6.15,10.38-37.88,10.39-43.97,0-.36-18.8,22.43-19.23,22.3-.43-.13-12.11-7.4-12.55-6.83-.82,1.07-1.52,2.21-2.07,3.42-.25.56-.48,1.13-.67,1.71Z"/>
  <path class="cls-2" d="M104.88,168.68c-.67,0-3.12.01-4.78.01s-3.92,0-4.59,0c-.39,0-7.83,8.97-7.62,9.2,1.21,1.35,2.33,2.78,3.3,4.31.9,1.41,1.61,2.89,2.34,4.39.33.69.77,1.32,1.44,1.72.68.4,1.48.61,2.25.77.92.2,1.85.3,2.78.31.93,0,1.86-.11,2.78-.31.77-.16,1.57-.37,2.25-.77.67-.39,1.11-1.03,1.44-1.72.73-1.5,1.45-2.98,2.34-4.39.97-1.53,2.09-2.96,3.3-4.31.21-.23-6.83-9.21-7.23-9.21Z"/>
  <path class="cls-4" d="M96.11,168.85l-21.07,24.01c-1.78-5.61-3.56-11.22-5.34-16.83-2.6-8.18-5.19-16.36-7.79-24.54-.26-.82-1.42-5.06-1.46-5.92-.05-1.13,6.21-7.96,8.11-10.47.28.35,4.56,21.65,27.55,33.75Z"/>
  <path class="cls-4" d="M104.38,168.85l21.07,24.01c1.78-5.61,3.56-11.22,5.34-16.83,2.6-8.18,5.19-16.36,7.79-24.54.26-.82,1.42-5.06,1.46-5.92.05-1.13-6.21-7.96-8.11-10.47-.28.35-6.54,23.43-27.55,33.75Z"/>
</svg>