<?xml version="1.0" encoding="UTF-8"?>
<svg id="Layer_1" data-name="Layer 1" xmlns="http://www.w3.org/2000/svg" viewBox="0 0 200 222.6">
  <defs>
    <style>
      .cls-1 {
        fill: #7c7878;
      }

      .cls-2 {
        fill: #1a1719;
      }

      .cls-3 {
        fill: #b2aead;
      }

      .cls-4 {
        fill: #4d4647;
      }

      .cls-5 {
        fill: #dce0e1;
      }

      .cls-6 {
        fill: #121111;
      }
    </style>
  </defs>
  <path class="cls-5" d="M200,122.6c0,21.85-7,42.06-18.89,58.5-.36.5-.73,1-1.1,1.49-.47.63-.95,1.25-1.43,1.86-1.75,2.22-3.6,4.37-5.54,6.44-.79.84-1.59,1.66-2.4,2.48-.98.98-1.98,1.94-3,2.88-.15.14-.3.27-.45.41-2.03,1.85-4.14,3.61-6.32,5.28-15.55,11.95-34.72,19.43-55.57,20.52-.34.02-.68.03-1.02.05-.69.03-1.39.05-2.08.07-.73.02-1.46.02-2.19.02h-.05c-.18,0-.36,0-.54,0-.39,0-.78,0-1.18-.01-.76-.01-1.51-.03-2.26-.06-23.23-.92-44.43-9.76-60.95-23.91-.9-.77-1.79-1.56-2.67-2.36-.63-.58-1.26-1.17-1.87-1.77-.38-.37-.76-.74-1.14-1.12-1.66-1.66-3.27-3.38-4.81-5.15-1.09-1.26-2.16-2.54-3.19-3.85-.47-.6-.93-1.2-1.39-1.8-.37-.49-.74-.99-1.1-1.49C6.99,164.62,0,144.42,0,122.6,0,67.37,44.77,22.6,100,22.6s100,44.77,100,100Z"/>
  <path class="cls-3" d="M178.57,184.46c-1.75,2.22-3.6,4.37-5.54,6.44-.79.84-1.59,1.66-2.4,2.48-.98.98-1.98,1.94-3,2.88-.15.14-.3.27-.45.41-2.03,1.85-4.14,3.61-6.32,5.28-16.86,12.96-37.96,20.65-60.87,20.65h-.05c-.18,0-.35,0-.53,0-24.58-.14-47.06-9.15-64.4-23.98-.9-.77-1.79-1.56-2.67-2.36-.63-.58-1.26-1.17-1.87-1.77-.38-.37-.76-.74-1.14-1.12-1.66-1.66-3.27-3.38-4.81-5.15-1.09-1.26-2.16-2.54-3.19-3.85.82-.44,1.37-.74,1.54-.86.11-.07.21-.14.32-.21.25-.16.5-.32.75-.48,2.36-1.45,5-2.58,7.93-3.32.61-.16,1.23-.3,1.85-.44.69-.15,1.38-.3,2.07-.43.63-.12,1.26-.24,1.88-.35.11-.02.22-.04.32-.06.96-.17,1.91-.33,2.85-.49,1.79-.31,3.64-.47,5.52-.61,2.16-.15,4.34-.25,6.49-.46,1.09-.11,2.18-.24,3.25-.42.96-.16,1.9-.37,2.83-.62,1.78-.49,3.56-1.1,5.28-1.86,4.19-1.85,8.06-4.61,10.9-8.9.84-1.27,1.52-2.61,2.09-4.01.34-.85.64-1.72.9-2.61.54-1.87.92-3.82,1.19-5.8.41-3.01.57-6.09.72-9.12.04-.75.07-1.51.1-2.27.1-2.26.18-4.56.18-6.86,0-.84,0-1.68-.02-2.52,0-.3-.02-.6-.03-.9-.02-.55-.04-1.1-.07-1.65,0-.11-.01-.24-.02-.39-.1-1.73-.39-5.9-.43-6.13l20.21,1.69,20.21-1.69c-.03.22-.31,4.28-.42,6.05-.01.18-.02.34-.03.46-.05.85-.08,1.71-.1,2.57,0,.02,0,.05,0,.07-.02.81-.02,1.62-.02,2.43,0,.38,0,.77.01,1.15v.02c.03,2.69.15,5.36.28,7.96,0,.08,0,.16.01.24.14,2.99.31,6.03.72,9,.23,1.64.53,3.25.94,4.81.03.14.07.28.11.41.29,1.03.62,2.05,1.01,3.03.57,1.41,1.26,2.76,2.1,4.04,2.84,4.29,6.7,7.05,10.9,8.9,1.72.76,3.49,1.37,5.28,1.86,1.25.35,2.53.6,3.84.78.63.09,1.27.17,1.91.23,2.02.21,4.07.31,6.1.44,2.11.14,4.21.31,6.23.65.92.16,1.85.31,2.78.48.03,0,.05.01.07.01.59.11,1.18.21,1.77.32.72.14,1.44.28,2.16.44.73.16,1.46.32,2.19.51,2.95.74,5.59,1.88,7.96,3.34.22.13.43.27.64.41.03.02.05.03.08.05.2.13.89.55,1.9,1.16Z"/>
  <path class="cls-1" d="M121.54,157.37c-15-1.14-25.45-4.5-34.84-13.66-.92-.9-3.43-1.8-6.59-2.66.1-2.26.18-4.56.18-6.86,0-.84,0-1.68-.02-2.52,0-.3-.02-.6-.03-.9-.02-.55-.04-1.1-.07-1.65,0-.11-.01-.24-.02-.39l7.35.45c3.32.74,6.7,1.24,10.07,1.39,4.04.18,8.88-.34,14-1.41l8.17-.51.43-.03c-.03.17-.39,3.67-.47,4.66-.06.68-.09,1.37-.11,2.05v.02c-.01.52-.02,1.03-.02,1.54.01,2.2.15,4.4.3,6.53,0,.04,0,.09.01.13.14,2.99.31,6.03.72,9,.23,1.64.53,3.25.94,4.81Z"/>
  <path class="cls-6" d="M137.13,36.95c-2.61-1.45-4.45-3.19-6.87-4.14.32-1.46.95-2.79,1.73-4.09.97-1.61,2.02-3.23,2.28-5.16.26-1.86-.48-3.31-1.34-4.83-.18-7.25-5.11-14.53-11.68-17.36-3.31-1.43-6.89-1.62-10.4-1.11-2.42.35-4.81.96-7.24,1.26-1.14.14-2.28.21-3.42.14-1.22-.07-2.41-.34-3.6-.6-.08-.02-.15-.01-.21,0-1.87-.64-3.8-.94-5.84-.71-5.05.56-9.69,3.58-13.14,7.73-1.7,1.41-3.28,3-4.57,4.75-2.13,2.88-3.48,6.74-2.4,10.36.57,1.93,1.96,3.52,1.79,5.65-.16,2.08-2.78,5.53-4.53,6.35-17.17,8.05-17.07,28.33-17.17,33.99-.17,9.71,6.87,16.15,9.58,25.18.18.6,3.13,4.36,3.64,4.07.18-.1.28-.31.36-.51.88-2.11,1.11-4.84,1.67-7.08.55-2.23-1.3-7.45-.56-9.6,1.49-4.36,3.42-8.51,5.71-12.31,2.23-3.71,4.83-7.36,7.92-10.02,1.51-1.3,3.17-2.36,4.98-2.86,1.66-.46,3.35-.33,4.98.19,5.76,1.84,44.68,39.85,44.88,41.05.11.68,4.46-3.13,4.47-3.79,0-.09,0-.18,0-.28.06.26.4.37.53.08.55-1.29,1.14-2.57,1.74-3.85.54-1.17,1.08-2.43,1.9-3.42,16.3-19.84.78-45.78-5.16-49.08ZM71.43,21.27c-.16-1.92.32-3.85,1.18-5.54.3-.58.64-1.14,1.01-1.68-.37.82-.68,1.66-.94,2.53-.64,2.17-.74,4.46-.43,6.71.1.7.37,1.44.66,2.19-.59-1.37-1.36-2.63-1.48-4.2ZM73.51,30.45c-.22.42-.49.79-.79,1.14.84-1.49,1.09-3.41.6-5.02-.03-.1-.06-.2-.1-.31.55,1.43.98,2.87.29,4.18ZM127.87,31.89c1.09-1.02,1.95-2.33,2.53-3.75,1.06-1.81,1.8-3.85,2.22-5.91.12-.6.2-1.2.25-1.81.45,1.04.72,2.13.47,3.34-.4,1.98-1.63,3.59-2.59,5.3-.61,1.09-1.07,2.23-1.33,3.44-.52-.2-1.04-.4-1.55-.6Z"/>
  <path class="cls-3" d="M143.03,90.73c-.05,2-.11,4-.3,6-.34,3.58-1.07,7.14-2.72,10.38-.66,1.3-1.37,2.79-2.5,3.75-1.6,1.36-3.2.16-4.75,1.19-1.49.98-4.71,9.05-5.42,10.64-3.18,7.08-6.5,10.61-12.59,15.49-3.56,2.85-10.09,6.37-14.65,6.63-.03,0-.06,0-.1,0-4.56-.26-11.09-3.79-14.65-6.63-6.09-4.87-9.58-8.41-12.75-15.49-.71-1.59-4.04-9.66-5.53-10.64-1.42-.94-2.21,0-4.33-.85-1.54-.62-2.06-2.61-2.81-4.08-1.65-3.24-2.39-6.8-2.72-10.38-.13-1.43-.21-2.86-.25-4.29,0-.04,0-.08,0-.13-.01-.36-.02-.71-.03-1.07,0-.04,0-.08,0-.12,0-.13,0-.26,0-.39,0-.43-.03-.9-.03-1.38,0-.06,0-.13,0-.19,0-.36.04-.72.1-1.07.01-.07.03-.13.04-.2.18-.75.55-1.42,1.33-1.85.7-.38,1.54-.37,2.19.1,1.44,1.03,1.95,2.8,2.39,4.42.22.83.88,2.57.9,3.12-.13-2.82-.14-11.52.32-14.31,1.99-12.3,10.56-20.22,21.11-25.66,13.87-7.16,30.88,35.21,51.44,37.68,1.86.22,1.07-4.08,2.7-5.25.65-.47,1.5-.48,2.19-.1,1.71.94,1.48,3.05,1.45,4.68Z"/>
  <path class="cls-4" d="M181.11,181.1c-.36.5-.73,1-1.1,1.49-.47.63-.95,1.25-1.43,1.86-1.75,2.22-3.6,4.37-5.54,6.44-.79.84-1.59,1.66-2.4,2.48-.98.98-1.98,1.94-3,2.88-.15.14-.3.27-.45.41-2.03,1.85-4.14,3.61-6.32,5.28-15.55,11.95-34.72,19.43-55.57,20.52-.34.02-.68.03-1.02.05-.69.03-1.39.05-2.08.07-.73.02-1.46.02-2.19.02h-.05c-.18,0-.36,0-.54,0-.39,0-.78,0-1.18-.01-.76-.01-1.51-.03-2.26-.06-23.23-.92-44.43-9.76-60.95-23.91-.9-.77-1.79-1.56-2.67-2.36-.63-.58-1.26-1.17-1.87-1.77-.38-.37-.76-.74-1.14-1.12-1.66-1.66-3.27-3.38-4.81-5.15-1.09-1.26-2.16-2.54-3.19-3.85-.47-.6-.93-1.2-1.39-1.8-.37-.49-.74-.99-1.1-1.49,1.53-1.28,3.17-2.43,4.92-3.42,2.58-1.46,5.5-2.58,8.79-3.29,2.06-.44,4.14-.79,6.2-1.1.97-.15,1.93-.29,2.88-.43,5.93-.87,12.5-.45,18.3-1.82,1.81-.43,3.6-.95,5.34-1.61,4.87-1.83,8.84-5.97,11.3-10.48.38-.7.71-1.41,1.01-2.12.99-2.41,1.52-4.89,1.84-7.43,1.4,2.62,3.08,5.09,5.01,7.35,1.22,1.43,2.54,2.77,3.94,4.02,1.31,1.17,2.72,2.24,4.06,3.37,1.31,1.1,2.57,2.27,3.62,3.62.51.65.94,1.35,1.3,2.08.01.02.03.05.04.07.41.86.72,1.76.91,2.71.16.82.25,1.64.3,2.47h0s0,.02,0,.03h0c.04.69.04,1.37.04,2.06v.12h0c0,.47-.01.94-.02,1.4-.02.85-.03,1.7-.03,2.55,0,0,0,.01,0,.01,0,1.33.02,2.65.07,3.98.06,1.73.16,3.46.31,5.19,0,.04,0,.09.01.13,0,.11.02.21.03.31.01.12.02.23.03.35.01.11.02.22.03.33.01.11.02.22.03.33.02.18.03.36.05.53,0,.04,0,.08.01.13,0,.02,0,.03,0,.05.01.12.02.23.04.35,0,.02,0,.04,0,.06.18,1.66.39,3.31.64,4.95,0,0,0,0,0,0,.02.11.03.21.05.32,0,.04.01.08.02.12,0-.04.01-.08.02-.12,0-.02,0-.05.01-.07,0,0,0-.01,0-.02h0c.66-4.3,1.07-8.62,1.23-12.96.08-2.18.09-4.36.05-6.54-.04-2.03-.09-4.08.31-6.08.16-.83.42-1.63.76-2.39h0c.39-.88.89-1.7,1.48-2.47,1.05-1.36,2.31-2.52,3.62-3.62,1.35-1.13,2.75-2.2,4.06-3.37,1.4-1.25,2.72-2.59,3.94-4.02,1.94-2.26,3.61-4.73,5.01-7.35.3,2.38.79,4.71,1.66,6.98.34.87.73,1.73,1.19,2.58,2.46,4.51,6.43,8.65,11.3,10.48,1.74.66,3.54,1.18,5.34,1.61,5.8,1.37,12.38.96,18.3,1.82.95.14,1.91.28,2.88.43,2.06.31,4.14.66,6.2,1.1,3.29.71,6.21,1.83,8.79,3.29,1.77,1,3.42,2.16,4.97,3.46Z"/>
  <g>
    <path class="cls-2" d="M125.88,165.96c-2.43,4.9-4.99,9.98-9.09,13.75-.91.84-2.03,1.83-3.37,1.63-.59-.09-1.11-.41-1.56-.79-1.04-.87-4.16-5.23-4.94-6.3-1.11-1.53-3.34-4.62-3.34-4.64.19.55.49,1.37.75,1.99.7,1.68,1.49,3.32,2.37,4.91.91,1.64,1.92,3.24,3.1,4.7.65.8,1.27,1.66,2.11,2.27,1.06.76,2.09.46,3.09-.27,1.65-1.21,3.07-2.66,4.32-4.27,2.36-3.01,4.16-6.48,5.55-10.04.37-.94.83-1.95,1.02-2.95Z"/>
    <path class="cls-2" d="M74.22,165.96c2.43,4.9,4.99,9.98,9.09,13.75.91.84,2.03,1.83,3.37,1.63.59-.09,1.11-.41,1.56-.79,1.04-.87,4.16-5.23,4.94-6.3,1.11-1.53,3.34-4.62,3.34-4.64-.19.55-.49,1.37-.75,1.99-.7,1.68-1.49,3.32-2.37,4.91-.91,1.64-1.92,3.24-3.1,4.7-.65.8-1.27,1.66-2.11,2.27-1.06.76-2.09.46-3.09-.27-1.65-1.21-3.07-2.66-4.32-4.27-2.36-3.01-4.16-6.48-5.55-10.04-.37-.94-.83-1.95-1.02-2.95Z"/>
    <path class="cls-2" d="M103,186.55c-.02-1-.04-2.01-.07-3.01-.07-1.98-.2-3.96-.5-5.9-.16-1.07-.38-2.14-.36-3.23.02-1.08.28-4.22.28-4.22,0,0-1.03,1.84-1.16,2.75-.14.89-.16,1.82-.2,2.73-.08,1.97-.07,3.94-.05,5.91.04,3.89-.07,7.81-.45,11.68-.21,2.14-.37,4.25-.98,6.28-.09.31.28.52.42.24.79-1.55,1.57-3.1,2.15-4.79.29-.83.52-1.69.68-2.57.17-.96.24-1.94.26-2.92.02-.98,0-1.97-.01-2.95Z"/>
    <path class="cls-2" d="M96.56,185.86c.02-.99.04-1.98.07-2.97.09-2.36.39-4.75.67-7.11.13-1.07.19-2.14.25-3.22.05-.83-.16-2.76-.16-2.76,1.09,2.05,1.36,4.09,1.41,6.38.07,2.98-.02,5.88.11,8.86.11,2.43.33,5.03.57,7.45.21,2.12.25,4,.59,6.18.05.32-.28.51-.42.24-.79-1.53-1.58-3.06-2.16-4.73-.29-.82-.53-1.67-.68-2.54-.17-.95-.24-1.91-.27-2.88-.03-.97,0-1.94.01-2.91Z"/>
  </g>
</svg>